<svg xmlns="http://www.w3.org/2000/svg" viewBox="0 0 1432.4499999999998 728.3500000000001" width="1432.4499999999998" height="728.3500000000001"><g transform="translate(754, 12.699999999999989)"><rect x="0" y="0" width="380" height="218" style="fill:#fefdfe"></rect><rect x="0" y="0" width="380" height="25" style="fill:#e6eaf2"></rect><text x="10" y="14" style="font-family:&#x27;Arial&#x27;, sans-serif;font-size:14px;fill:#202020">Authors</text><g transform="translate(0, 15)"><g transform="translate(10, 25)"><g transform="translate(0, 0)"><clipPath id="clip_38739257-e4a6-45f0-914b-6b40cec10d54"><rect x="21" y="0" width="191" height="17"></rect></clipPath><text x="21" y="14" style="fill:#202020;font-family:Arial;font-size:14px" clip-path="url(#clip_38739257-e4a6-45f0-914b-6b40cec10d54)">_id</text></g><text x="233" y="14" style="fill:#202020;font-family:Arial;font-size:14px" width="80">objectId</text><text x="334" y="14" width="22" height="14" style="fill:#202020;font-family:Arial;font-size:14px">NN</text></g><g transform="translate(10, 49)"><g transform="translate(0, 0)"><clipPath id="clip_fe71217b-a58b-4bff-871e-a510b792fe69"><rect x="21" y="0" width="191" height="17"></rect></clipPath><text x="21" y="14" style="fill:#202020;font-family:Arial;font-size:14px" clip-path="url(#clip_fe71217b-a58b-4bff-871e-a510b792fe69)">name</text></g><text x="233" y="14" style="fill:#202020;font-family:Arial;font-size:14px" width="80">string</text><text x="334" y="14" width="22" height="14" style="fill:#202020;font-family:Arial;font-size:14px"></text></g><g transform="translate(10, 73)"><g transform="translate(0, 0)"><clipPath id="clip_101d7ba0-5ed9-4ac0-8e64-da01a96b0573"><rect x="21" y="0" width="191" height="17"></rect></clipPath><text x="21" y="14" style="fill:#202020;font-family:Arial;font-size:14px" clip-path="url(#clip_101d7ba0-5ed9-4ac0-8e64-da01a96b0573)">surnames</text></g><text x="233" y="14" style="fill:#202020;font-family:Arial;font-size:14px" width="80">string</text><text x="334" y="14" width="22" height="14" style="fill:#202020;font-family:Arial;font-size:14px"></text></g><g transform="translate(10, 97)"><g transform="translate(0, 0)"><clipPath id="clip_220d25ba-30dd-40d2-a23b-bf2db3091665"><rect x="21" y="0" width="191" height="17"></rect></clipPath><text x="21" y="14" style="fill:#202020;font-family:Arial;font-size:14px" clip-path="url(#clip_220d25ba-30dd-40d2-a23b-bf2db3091665)">bio</text></g><text x="233" y="14" style="fill:#202020;font-family:Arial;font-size:14px" width="80">string</text><text x="334" y="14" width="22" height="14" style="fill:#202020;font-family:Arial;font-size:14px"></text></g><g transform="translate(10, 121)"><g transform="translate(0, 0)"><text x="0" y="14" style="fill:#202020;font-family:&#x27;Arial&#x27;, sans-serif;font-size:14px">▼</text><clipPath id="clip_ea260fe8-a47d-490c-858a-c3354dbdcadc"><rect x="21" y="0" width="191" height="17"></rect></clipPath><text x="21" y="14" style="fill:#202020;font-family:Arial;font-size:14px" clip-path="url(#clip_ea260fe8-a47d-490c-858a-c3354dbdcadc)">links</text></g><text x="233" y="14" style="fill:#202020;font-family:Arial;font-size:14px" width="80">object[]</text><text x="334" y="14" width="22" height="14" style="fill:#202020;font-family:Arial;font-size:14px"></text></g><g transform="translate(10, 145)"><g transform="translate(20, 0)"><clipPath id="clip_b7a5b8a5-a851-4955-aba5-587af4ae1e74"><rect x="21" y="0" width="171" height="17"></rect></clipPath><text x="21" y="14" style="fill:#202020;font-family:Arial;font-size:14px" clip-path="url(#clip_b7a5b8a5-a851-4955-aba5-587af4ae1e74)">platform</text></g><text x="233" y="14" style="fill:#202020;font-family:Arial;font-size:14px" width="80">string</text><text x="334" y="14" width="22" height="14" style="fill:#202020;font-family:Arial;font-size:14px"></text></g><g transform="translate(10, 169)"><g transform="translate(20, 0)"><clipPath id="clip_4a9eea5e-cf02-4260-810d-9d4d1d5e866e"><rect x="21" y="0" width="171" height="17"></rect></clipPath><text x="21" y="14" style="fill:#202020;font-family:Arial;font-size:14px" clip-path="url(#clip_4a9eea5e-cf02-4260-810d-9d4d1d5e866e)">link</text></g><text x="233" y="14" style="fill:#202020;font-family:Arial;font-size:14px" width="80">string</text><text x="334" y="14" width="22" height="14" style="fill:#202020;font-family:Arial;font-size:14px"></text></g></g><rect x="0" y="0" width="380" height="218" style="fill:none;stroke:#e6eaf2"></rect></g><g transform="translate(910.45, 392.8000000000001)"><rect x="0" y="0" width="380" height="146" style="fill:#fefdfe"></rect><rect x="0" y="0" width="380" height="25" style="fill:#e6eaf2"></rect><text x="10" y="14" style="font-family:&#x27;Arial&#x27;, sans-serif;font-size:14px;fill:#202020">Courses</text><g transform="translate(0, 15)"><g transform="translate(10, 25)"><g transform="translate(0, 0)"><clipPath id="clip_d0e055c2-00a3-4e79-aaa0-7439ff14432c"><rect x="21" y="0" width="191" height="17"></rect></clipPath><text x="21" y="14" style="fill:#202020;font-family:Arial;font-size:14px" clip-path="url(#clip_d0e055c2-00a3-4e79-aaa0-7439ff14432c)">_id</text></g><text x="233" y="14" style="fill:#202020;font-family:Arial;font-size:14px" width="80">objectId</text><text x="334" y="14" width="22" height="14" style="fill:#202020;font-family:Arial;font-size:14px">NN</text></g><g transform="translate(10, 49)"><g transform="translate(0, 0)"><clipPath id="clip_71df4ce8-9eed-4a03-8050-9489e866edc4"><rect x="21" y="0" width="191" height="17"></rect></clipPath><text x="21" y="14" style="fill:#202020;font-family:Arial;font-size:14px" clip-path="url(#clip_71df4ce8-9eed-4a03-8050-9489e866edc4)">title</text></g><text x="233" y="14" style="fill:#202020;font-family:Arial;font-size:14px" width="80">string</text><text x="334" y="14" width="22" height="14" style="fill:#202020;font-family:Arial;font-size:14px"></text></g><g transform="translate(10, 73)"><g transform="translate(0, 0)"><clipPath id="clip_6df07a79-9593-46a9-b7fc-4bbe15da323b"><rect x="21" y="0" width="191" height="17"></rect></clipPath><text x="21" y="14" style="fill:#202020;font-family:Arial;font-size:14px" clip-path="url(#clip_6df07a79-9593-46a9-b7fc-4bbe15da323b)">hours</text></g><text x="233" y="14" style="fill:#202020;font-family:Arial;font-size:14px" width="80">int</text><text x="334" y="14" width="22" height="14" style="fill:#202020;font-family:Arial;font-size:14px"></text></g><g transform="translate(10, 97)"><g transform="translate(0, 0)"><clipPath id="clip_24412f59-8dee-4630-9896-f37cdccf74b2"><rect x="21" y="0" width="191" height="17"></rect></clipPath><text x="21" y="14" style="fill:#202020;font-family:Arial;font-size:14px" clip-path="url(#clip_24412f59-8dee-4630-9896-f37cdccf74b2)">description</text></g><text x="233" y="14" style="fill:#202020;font-family:Arial;font-size:14px" width="80">string</text><text x="334" y="14" width="22" height="14" style="fill:#202020;font-family:Arial;font-size:14px"></text></g></g><rect x="0" y="0" width="380" height="146" style="fill:none;stroke:#e6eaf2"></rect></g><g transform="translate(952.4499999999999, 251.05000000000004)"><rect x="0" y="0" width="380" height="122" style="fill:#fefdfe"></rect><rect x="0" y="0" width="380" height="25" style="fill:#e6eaf2"></rect><text x="10" y="14" style="font-family:&#x27;Arial&#x27;, sans-serif;font-size:14px;fill:#202020">AuthorsCourse</text><g transform="translate(0, 15)"><g transform="translate(10, 25)"><g transform="translate(0, 0)"><clipPath id="clip_5d3fc1e8-5ead-47df-9bc8-28ac26e0be45"><rect x="21" y="0" width="191" height="17"></rect></clipPath><text x="21" y="14" style="fill:#202020;font-family:Arial;font-size:14px" clip-path="url(#clip_5d3fc1e8-5ead-47df-9bc8-28ac26e0be45)">_id</text></g><text x="233" y="14" style="fill:#202020;font-family:Arial;font-size:14px" width="80">objectId</text><text x="334" y="14" width="22" height="14" style="fill:#202020;font-family:Arial;font-size:14px">NN</text></g><g transform="translate(10, 49)"><g transform="translate(0, 0)"><clipPath id="clip_66f6bde6-a95c-43d9-b20a-362306000858"><rect x="21" y="0" width="191" height="17"></rect></clipPath><text x="21" y="14" style="fill:#202020;font-family:Arial;font-size:14px" clip-path="url(#clip_66f6bde6-a95c-43d9-b20a-362306000858)">idAuthors</text></g><text x="233" y="14" style="fill:#202020;font-family:Arial;font-size:14px" width="80">objectId</text><text x="334" y="14" width="22" height="14" style="fill:#202020;font-family:Arial;font-size:14px"></text></g><g transform="translate(10, 73)"><g transform="translate(0, 0)"><clipPath id="clip_3eddceba-a812-42c1-8cc4-f7ac856cc31b"><rect x="21" y="0" width="191" height="17"></rect></clipPath><text x="21" y="14" style="fill:#202020;font-family:Arial;font-size:14px" clip-path="url(#clip_3eddceba-a812-42c1-8cc4-f7ac856cc31b)">idCourses</text></g><text x="233" y="14" style="fill:#202020;font-family:Arial;font-size:14px" width="80">objectId</text><text x="334" y="14" width="22" height="14" style="fill:#202020;font-family:Arial;font-size:14px"></text></g></g><rect x="0" y="0" width="380" height="122" style="fill:none;stroke:#e6eaf2"></rect></g><g transform="translate(94.60000000000002, 265.75)"><rect x="0" y="0" width="380" height="242" style="fill:#fefdfe"></rect><rect x="0" y="0" width="380" height="25" style="fill:#e6eaf2"></rect><text x="10" y="14" style="font-family:&#x27;Arial&#x27;, sans-serif;font-size:14px;fill:#202020">Videos</text><g transform="translate(0, 15)"><g transform="translate(10, 25)"><g transform="translate(0, 0)"><clipPath id="clip_ad8ac145-1530-46f2-be86-072b861f7aca"><rect x="21" y="0" width="191" height="17"></rect></clipPath><text x="21" y="14" style="fill:#202020;font-family:Arial;font-size:14px" clip-path="url(#clip_ad8ac145-1530-46f2-be86-072b861f7aca)">_id</text></g><text x="233" y="14" style="fill:#202020;font-family:Arial;font-size:14px" width="80">objectId</text><text x="334" y="14" width="22" height="14" style="fill:#202020;font-family:Arial;font-size:14px">NN</text></g><g transform="translate(10, 49)"><g transform="translate(0, 0)"><clipPath id="clip_386bc494-f3d6-4a55-9d38-620d57192323"><rect x="21" y="0" width="191" height="17"></rect></clipPath><text x="21" y="14" style="fill:#202020;font-family:Arial;font-size:14px" clip-path="url(#clip_386bc494-f3d6-4a55-9d38-620d57192323)">name</text></g><text x="233" y="14" style="fill:#202020;font-family:Arial;font-size:14px" width="80">string</text><text x="334" y="14" width="22" height="14" style="fill:#202020;font-family:Arial;font-size:14px"></text></g><g transform="translate(10, 73)"><g transform="translate(0, 0)"><text x="0" y="14" style="fill:#202020;font-family:&#x27;Arial&#x27;, sans-serif;font-size:14px">▼</text><clipPath id="clip_19123fb1-5f3b-42ce-8d59-0b51ab23fd25"><rect x="21" y="0" width="191" height="17"></rect></clipPath><text x="21" y="14" style="fill:#202020;font-family:Arial;font-size:14px" clip-path="url(#clip_19123fb1-5f3b-42ce-8d59-0b51ab23fd25)">storage</text></g><text x="233" y="14" style="fill:#202020;font-family:Arial;font-size:14px" width="80">object[]</text><text x="334" y="14" width="22" height="14" style="fill:#202020;font-family:Arial;font-size:14px"></text></g><g transform="translate(10, 97)"><g transform="translate(20, 0)"><clipPath id="clip_b81b198b-300a-4948-97c0-613457fcbc2c"><rect x="21" y="0" width="171" height="17"></rect></clipPath><text x="21" y="14" style="fill:#202020;font-family:Arial;font-size:14px" clip-path="url(#clip_b81b198b-300a-4948-97c0-613457fcbc2c)">id</text></g><text x="233" y="14" style="fill:#202020;font-family:Arial;font-size:14px" width="80">objectId</text><text x="334" y="14" width="22" height="14" style="fill:#202020;font-family:Arial;font-size:14px"></text></g><g transform="translate(10, 121)"><g transform="translate(20, 0)"><clipPath id="clip_3c2e8743-4800-4e54-98b1-f0dd1117de77"><rect x="21" y="0" width="171" height="17"></rect></clipPath><text x="21" y="14" style="fill:#202020;font-family:Arial;font-size:14px" clip-path="url(#clip_3c2e8743-4800-4e54-98b1-f0dd1117de77)">name</text></g><text x="233" y="14" style="fill:#202020;font-family:Arial;font-size:14px" width="80">string</text><text x="334" y="14" width="22" height="14" style="fill:#202020;font-family:Arial;font-size:14px"></text></g><g transform="translate(10, 145)"><g transform="translate(0, 0)"><clipPath id="clip_a66a20fb-d4d5-49f1-a8e8-72517f0f4e9e"><rect x="21" y="0" width="191" height="17"></rect></clipPath><text x="21" y="14" style="fill:#202020;font-family:Arial;font-size:14px" clip-path="url(#clip_a66a20fb-d4d5-49f1-a8e8-72517f0f4e9e)">idCourses</text></g><text x="233" y="14" style="fill:#202020;font-family:Arial;font-size:14px" width="80">objectId</text><text x="334" y="14" width="22" height="14" style="fill:#202020;font-family:Arial;font-size:14px"></text></g><g transform="translate(10, 169)"><g transform="translate(0, 0)"><clipPath id="clip_5a129196-9a6c-4b45-83b4-57b9ccacf7b4"><rect x="21" y="0" width="191" height="17"></rect></clipPath><text x="21" y="14" style="fill:#202020;font-family:Arial;font-size:14px" clip-path="url(#clip_5a129196-9a6c-4b45-83b4-57b9ccacf7b4)">author</text></g><text x="233" y="14" style="fill:#202020;font-family:Arial;font-size:14px" width="80">object</text><text x="334" y="14" width="22" height="14" style="fill:#202020;font-family:Arial;font-size:14px"></text></g><g transform="translate(10, 193)"><g transform="translate(0, 0)"><clipPath id="clip_15ef4cdd-6f73-45ea-bae0-2c71dad2ff63"><rect x="21" y="0" width="191" height="17"></rect></clipPath><text x="21" y="14" style="fill:#202020;font-family:Arial;font-size:14px" clip-path="url(#clip_15ef4cdd-6f73-45ea-bae0-2c71dad2ff63)">category</text></g><text x="233" y="14" style="fill:#202020;font-family:Arial;font-size:14px" width="80">object[]</text><text x="334" y="14" width="22" height="14" style="fill:#202020;font-family:Arial;font-size:14px"></text></g></g><rect x="0" y="0" width="380" height="242" style="fill:none;stroke:#e6eaf2"></rect></g><g transform="translate(104.04999999999995, 0)"><rect x="0" y="0" width="380" height="242" style="fill:#fefdfe"></rect><rect x="0" y="0" width="380" height="25" style="fill:#e6eaf2"></rect><text x="10" y="14" style="font-family:&#x27;Arial&#x27;, sans-serif;font-size:14px;fill:#202020">Articles</text><g transform="translate(0, 15)"><g transform="translate(10, 25)"><g transform="translate(0, 0)"><clipPath id="clip_fba3c043-a3ae-4afe-bb59-fb3b0c882e94"><rect x="21" y="0" width="191" height="17"></rect></clipPath><text x="21" y="14" style="fill:#202020;font-family:Arial;font-size:14px" clip-path="url(#clip_fba3c043-a3ae-4afe-bb59-fb3b0c882e94)">_id</text></g><text x="233" y="14" style="fill:#202020;font-family:Arial;font-size:14px" width="80">objectId</text><text x="334" y="14" width="22" height="14" style="fill:#202020;font-family:Arial;font-size:14px">NN</text></g><g transform="translate(10, 49)"><g transform="translate(0, 0)"><clipPath id="clip_2d537743-391e-42de-97da-c401b180a4e4"><rect x="21" y="0" width="191" height="17"></rect></clipPath><text x="21" y="14" style="fill:#202020;font-family:Arial;font-size:14px" clip-path="url(#clip_2d537743-391e-42de-97da-c401b180a4e4)">name</text></g><text x="233" y="14" style="fill:#202020;font-family:Arial;font-size:14px" width="80">string</text><text x="334" y="14" width="22" height="14" style="fill:#202020;font-family:Arial;font-size:14px"></text></g><g transform="translate(10, 73)"><g transform="translate(0, 0)"><text x="0" y="14" style="fill:#202020;font-family:&#x27;Arial&#x27;, sans-serif;font-size:14px">▼</text><clipPath id="clip_05a11282-e7ab-4cdb-8630-78c11eaf6380"><rect x="21" y="0" width="191" height="17"></rect></clipPath><text x="21" y="14" style="fill:#202020;font-family:Arial;font-size:14px" clip-path="url(#clip_05a11282-e7ab-4cdb-8630-78c11eaf6380)">storage</text></g><text x="233" y="14" style="fill:#202020;font-family:Arial;font-size:14px" width="80">object[]</text><text x="334" y="14" width="22" height="14" style="fill:#202020;font-family:Arial;font-size:14px"></text></g><g transform="translate(10, 97)"><g transform="translate(20, 0)"><clipPath id="clip_be1520cb-09d4-430d-b318-3402c67734db"><rect x="21" y="0" width="171" height="17"></rect></clipPath><text x="21" y="14" style="fill:#202020;font-family:Arial;font-size:14px" clip-path="url(#clip_be1520cb-09d4-430d-b318-3402c67734db)">id</text></g><text x="233" y="14" style="fill:#202020;font-family:Arial;font-size:14px" width="80">objectId</text><text x="334" y="14" width="22" height="14" style="fill:#202020;font-family:Arial;font-size:14px"></text></g><g transform="translate(10, 121)"><g transform="translate(20, 0)"><clipPath id="clip_bca44565-1b8a-4807-b0b3-457de4137224"><rect x="21" y="0" width="171" height="17"></rect></clipPath><text x="21" y="14" style="fill:#202020;font-family:Arial;font-size:14px" clip-path="url(#clip_bca44565-1b8a-4807-b0b3-457de4137224)">name</text></g><text x="233" y="14" style="fill:#202020;font-family:Arial;font-size:14px" width="80">string</text><text x="334" y="14" width="22" height="14" style="fill:#202020;font-family:Arial;font-size:14px"></text></g><g transform="translate(10, 145)"><g transform="translate(0, 0)"><clipPath id="clip_b3a7388d-e786-4ee8-92b5-b3f24b0ed296"><rect x="21" y="0" width="191" height="17"></rect></clipPath><text x="21" y="14" style="fill:#202020;font-family:Arial;font-size:14px" clip-path="url(#clip_b3a7388d-e786-4ee8-92b5-b3f24b0ed296)">author</text></g><text x="233" y="14" style="fill:#202020;font-family:Arial;font-size:14px" width="80">objectId</text><text x="334" y="14" width="22" height="14" style="fill:#202020;font-family:Arial;font-size:14px"></text></g><g transform="translate(10, 169)"><g transform="translate(0, 0)"><clipPath id="clip_bfb43d9f-7f98-4443-89bc-535f68537186"><rect x="21" y="0" width="191" height="17"></rect></clipPath><text x="21" y="14" style="fill:#202020;font-family:Arial;font-size:14px" clip-path="url(#clip_bfb43d9f-7f98-4443-89bc-535f68537186)">idCourse</text></g><text x="233" y="14" style="fill:#202020;font-family:Arial;font-size:14px" width="80">objectId</text><text x="334" y="14" width="22" height="14" style="fill:#202020;font-family:Arial;font-size:14px"></text></g><g transform="translate(10, 193)"><g transform="translate(0, 0)"><clipPath id="clip_4eec744b-3054-415d-89a4-a8839efb52fd"><rect x="21" y="0" width="191" height="17"></rect></clipPath><text x="21" y="14" style="fill:#202020;font-family:Arial;font-size:14px" clip-path="url(#clip_4eec744b-3054-415d-89a4-a8839efb52fd)">category</text></g><text x="233" y="14" style="fill:#202020;font-family:Arial;font-size:14px" width="80">object[]</text><text x="334" y="14" width="22" height="14" style="fill:#202020;font-family:Arial;font-size:14px"></text></g></g><rect x="0" y="0" width="380" height="242" style="fill:none;stroke:#e6eaf2"></rect></g><g transform="translate(92.50000000000006, 530.3500000000001)"><rect x="0" y="0" width="380" height="98" style="fill:#fefdfe"></rect><rect x="0" y="0" width="380" height="25" style="fill:#e6eaf2"></rect><text x="10" y="14" style="font-family:&#x27;Arial&#x27;, sans-serif;font-size:14px;fill:#202020">Categories</text><g transform="translate(0, 15)"><g transform="translate(10, 25)"><g transform="translate(0, 0)"><clipPath id="clip_f6728cf3-a874-43b7-8413-1cb796370a2c"><rect x="21" y="0" width="191" height="17"></rect></clipPath><text x="21" y="14" style="fill:#202020;font-family:Arial;font-size:14px" clip-path="url(#clip_f6728cf3-a874-43b7-8413-1cb796370a2c)">_id</text></g><text x="233" y="14" style="fill:#202020;font-family:Arial;font-size:14px" width="80">objectId</text><text x="334" y="14" width="22" height="14" style="fill:#202020;font-family:Arial;font-size:14px">NN</text></g><g transform="translate(10, 49)"><g transform="translate(0, 0)"><clipPath id="clip_6a7bec08-cfc0-485b-a0e8-aed17f43e194"><rect x="21" y="0" width="191" height="17"></rect></clipPath><text x="21" y="14" style="fill:#202020;font-family:Arial;font-size:14px" clip-path="url(#clip_6a7bec08-cfc0-485b-a0e8-aed17f43e194)">name</text></g><text x="233" y="14" style="fill:#202020;font-family:Arial;font-size:14px" width="80">string</text><text x="334" y="14" width="22" height="14" style="fill:#202020;font-family:Arial;font-size:14px"></text></g></g><rect x="0" y="0" width="380" height="98" style="fill:none;stroke:#e6eaf2"></rect></g><g><svg><defs><filter id="table_glow"><feGaussianBlur stdDeviation="3.5" result="coloredBlur"></feGaussianBlur><feMerge><feMergeNode in="coloredBlur"></feMergeNode><feMergeNode in="SourceGraphic"></feMergeNode></feMerge></filter></defs><line x1="484.6" y1="435.75" x2="910.45" y2="442.8000000000001" stroke="#ecad5a" stroke-width="2"></line><g><line x1="484.6" y1="435.75" x2="474.6" y2="435.75" stroke="#ecad5a" stroke-width="2"></line><line x1="484.6" y1="435.75" x2="474.6" y2="430.75" stroke="#ecad5a" stroke-width="2"></line><line x1="484.6" y1="435.75" x2="474.6" y2="440.75" stroke="#ecad5a" stroke-width="2"></line></g></svg><svg><defs><filter id="table_glow"><feGaussianBlur stdDeviation="3.5" result="coloredBlur"></feGaussianBlur><feMerge><feMergeNode in="coloredBlur"></feMergeNode><feMergeNode in="SourceGraphic"></feMergeNode></feMerge></filter></defs><path d="
M 754 62.69999999999999 
H 734 
V 325.05000000000007 
H 942.4499999999999
" fill="none" stroke="#ecad5a" stroke-width="2"></path><g><line x1="942.4499999999999" y1="325.05000000000007" x2="952.4499999999999" y2="325.05000000000007" stroke="#ecad5a" stroke-width="2"></line><line x1="942.4499999999999" y1="325.05000000000007" x2="952.4499999999999" y2="320.05000000000007" stroke="#ecad5a" stroke-width="2"></line><line x1="942.4499999999999" y1="325.05000000000007" x2="952.4499999999999" y2="330.05000000000007" stroke="#ecad5a" stroke-width="2"></line></g></svg><svg><defs><filter id="table_glow"><feGaussianBlur stdDeviation="3.5" result="coloredBlur"></feGaussianBlur><feMerge><feMergeNode in="coloredBlur"></feMergeNode><feMergeNode in="SourceGraphic"></feMergeNode></feMerge></filter></defs><path d="
M 910.45 442.8000000000001 
H 890.45 
V 349.05000000000007 
H 942.4499999999999
" fill="none" stroke="#ecad5a" stroke-width="2"></path><g><line x1="942.4499999999999" y1="349.05000000000007" x2="952.4499999999999" y2="349.05000000000007" stroke="#ecad5a" stroke-width="2"></line><line x1="942.4499999999999" y1="349.05000000000007" x2="952.4499999999999" y2="344.05000000000007" stroke="#ecad5a" stroke-width="2"></line><line x1="942.4499999999999" y1="349.05000000000007" x2="952.4499999999999" y2="354.05000000000007" stroke="#ecad5a" stroke-width="2"></line></g></svg><svg><defs><filter id="table_glow"><feGaussianBlur stdDeviation="3.5" result="coloredBlur"></feGaussianBlur><feMerge><feMergeNode in="coloredBlur"></feMergeNode><feMergeNode in="SourceGraphic"></feMergeNode></feMerge></filter></defs><line x1="910.45" y1="442.8000000000001" x2="494.04999999999995" y2="194" stroke="#ecad5a" stroke-width="2"></line><g><line x1="494.04999999999995" y1="194" x2="484.04999999999995" y2="194" stroke="#ecad5a" stroke-width="2"></line><line x1="494.04999999999995" y1="194" x2="484.04999999999995" y2="189" stroke="#ecad5a" stroke-width="2"></line><line x1="494.04999999999995" y1="194" x2="484.04999999999995" y2="199" stroke="#ecad5a" stroke-width="2"></line></g></svg></g></svg>